<svg width="185" height="36" viewBox="0 0 185 36" fill="none" xmlns="http://www.w3.org/2000/svg">
<path d="M9.584 28.396C14.768 28.396 19.052 24.292 19.052 19C19.052 13.708 14.768 9.604 9.584 9.604C4.4 9.604 0.116 13.708 0.116 19C0.116 24.292 4.4 28.396 9.584 28.396ZM9.584 23.32C7.316 23.32 5.588 21.556 5.588 19C5.588 16.444 7.316 14.68 9.584 14.68C11.852 14.68 13.58 16.444 13.58 19C13.58 21.556 11.852 23.32 9.584 23.32ZM53.7965 7.552C55.7045 7.552 57.2165 6.04 57.2165 4.168C57.2165 2.296 55.7045 0.783998 53.7965 0.783998C51.9605 0.783998 50.4125 2.296 50.4125 4.168C50.4125 6.04 51.9605 7.552 53.7965 7.552ZM24.0605 28H29.4965V14.716H33.3125V10H29.4965V8.704C29.4965 6.544 30.3965 5.68 32.5925 5.68C33.3845 5.68 34.2845 5.752 34.5365 5.968V1.18C33.7445 0.927999 32.7365 0.783998 31.2965 0.783998C27.3005 0.783998 24.0605 3.016 24.0605 7.588V10H20.4605V14.716H24.0605V28ZM37.8485 28H43.2845V14.716H48.3245V10H43.2845V8.704C43.2845 6.544 44.1845 5.68 46.3445 5.68C47.1725 5.68 47.7485 5.752 48.3245 5.968V1.18C47.4965 0.927999 46.5245 0.783998 45.0845 0.783998C41.0885 0.783998 37.8485 3.016 37.8485 7.588V10H35.0045V14.716H37.8485V28ZM51.0965 28H56.5325V10H51.0965V28ZM69.4936 28.396C73.2376 28.396 76.5496 26.272 78.0976 23.14L73.3456 20.62C72.6976 22.168 71.2936 23.32 69.4936 23.32C67.2256 23.32 65.3896 21.556 65.3896 19C65.3896 16.444 67.2256 14.68 69.4936 14.68C71.2936 14.68 72.6976 15.832 73.3456 17.38L78.0976 14.86C76.5496 11.728 73.2376 9.604 69.4936 9.604C64.2016 9.604 59.9176 13.492 59.9176 19C59.9176 24.508 64.2016 28.396 69.4936 28.396ZM89.4975 28.396C93.2775 28.396 96.2655 26.812 97.9575 24.436L93.9255 21.412C93.2415 22.456 91.6575 23.464 89.5695 23.464C87.5175 23.464 85.5015 22.456 85.1775 20.296H98.2455C98.3535 19.432 98.3535 18.856 98.3535 18.388C98.3535 12.556 94.1415 9.604 89.3895 9.604C83.9175 9.604 79.9215 13.636 79.9215 19C79.9215 24.796 84.2055 28.396 89.4975 28.396ZM89.2455 14.032C90.8295 14.032 92.4855 14.824 92.9535 16.732H85.3215C85.7895 14.752 87.6615 14.032 89.2455 14.032Z" fill="#51C9FF"/>
<path d="M109.663 35.884C115.279 35.884 119.491 33.148 119.491 26.488V10H114.055V11.8C113.227 10.576 111.355 9.604 109.159 9.604C104.551 9.604 100.735 13.636 100.735 18.676C100.735 23.716 104.551 27.748 109.159 27.748C111.355 27.748 113.227 26.776 114.055 25.552V26.56C114.055 29.08 112.471 31.132 109.591 31.132C107.827 31.132 105.775 30.556 104.155 29.152L101.311 33.22C103.507 35.128 106.783 35.884 109.663 35.884ZM110.347 22.816C108.151 22.816 106.207 21.196 106.207 18.676C106.207 16.156 108.151 14.536 110.347 14.536C112.543 14.536 114.487 16.156 114.487 18.676C114.487 21.196 112.543 22.816 110.347 22.816ZM132.458 28.396C136.238 28.396 139.226 26.812 140.918 24.436L136.886 21.412C136.202 22.456 134.618 23.464 132.53 23.464C130.478 23.464 128.462 22.456 128.138 20.296H141.206C141.314 19.432 141.314 18.856 141.314 18.388C141.314 12.556 137.102 9.604 132.35 9.604C126.878 9.604 122.882 13.636 122.882 19C122.882 24.796 127.166 28.396 132.458 28.396ZM132.206 14.032C133.79 14.032 135.446 14.824 135.914 16.732H128.282C128.75 14.752 130.622 14.032 132.206 14.032ZM153.236 28.396C157.016 28.396 160.004 26.812 161.696 24.436L157.664 21.412C156.98 22.456 155.396 23.464 153.308 23.464C151.256 23.464 149.24 22.456 148.916 20.296H161.984C162.092 19.432 162.092 18.856 162.092 18.388C162.092 12.556 157.88 9.604 153.128 9.604C147.656 9.604 143.66 13.636 143.66 19C143.66 24.796 147.944 28.396 153.236 28.396ZM152.984 14.032C154.568 14.032 156.224 14.824 156.692 16.732H149.06C149.528 14.752 151.4 14.032 152.984 14.032ZM165.517 28H170.953V19.936L177.649 28H184.237L176.029 18.136L182.653 10H176.209L170.953 16.444V0.999998H165.517V28Z" fill="#020D84"/>
</svg>
