<svg width="100%" height="100%" viewBox="0 0 109 109" version="1.1" xmlns="http://www.w3.org/2000/svg" xmlns:xlink="http://www.w3.org/1999/xlink" xml:space="preserve" xmlns:serif="http://www.serif.com/" style="fill-rule:evenodd;clip-rule:evenodd;stroke-linejoin:round;stroke-miterlimit:2;">
    <g transform="matrix(1,0,0,1,-918.507,-2665.51)">
        <path id="Shape-6-copy-4" serif:id="Shape 6 copy 4" d="M973,2692.35C988.272,2692.35 1000.65,2704.73 1000.65,2720C1000.65,2735.27 988.272,2747.65 973,2747.65C957.728,2747.65 945.347,2735.27 945.347,2720C945.347,2704.73 957.728,2692.35 973,2692.35Z" style="fill:white;"/>
        <path id="Shape-6-copy-41" serif:id="Shape 6 copy 4" d="M973,2682.59C993.663,2682.59 1010.41,2699.34 1010.41,2720C1010.41,2740.66 993.663,2757.41 973,2757.41C952.337,2757.41 935.587,2740.66 935.587,2720C935.587,2699.34 952.337,2682.59 973,2682.59Z" style="fill:white;fill-opacity:0.6;"/>
        <path id="Shape-6-copy-42" serif:id="Shape 6 copy 4" d="M973,2673.64C998.604,2673.64 1019.36,2694.4 1019.36,2720C1019.36,2745.6 998.604,2766.36 973,2766.36C947.396,2766.36 926.64,2745.6 926.64,2720C926.64,2694.4 947.396,2673.64 973,2673.64Z" style="fill:white;fill-opacity:0.4;"/>
        <path id="Shape-6-copy-43" serif:id="Shape 6 copy 4" d="M973,2665.51C1003.1,2665.51 1027.49,2689.9 1027.49,2720C1027.49,2750.1 1003.1,2774.49 973,2774.49C942.904,2774.49 918.507,2750.1 918.507,2720C918.507,2689.9 942.904,2665.51 973,2665.51Z" style="fill:white;fill-opacity:0.2;"/>
        <path id="Shape-7-copy" serif:id="Shape 7 copy" d="M964.074,2729.91L964.41,2709.9L981.571,2720.19L964.074,2729.91Z" style="fill:rgb(33,197,93);fill-rule:nonzero;"/>
    </g>
</svg>
